Coordinates
version=1
nRows=65
nColumns=12
inDegrees=yes

Units are S.I. units (second, meters, Newtons, ...)
Angles are in degrees

endheader
time	SC_y	SC_z	SC_x	AC_y	AC_z	AC_x	GH_y	GH_z	GH_yy	EL_x	PS_y
       0.0              -26.54          4.079           77.3          65.73          3.005         -9.044          2.293         -4.756          151.5          110.5          56.35
   0.02716              -26.54          4.081          77.29          65.72          3.004         -9.044          2.283         -4.748          151.4          110.5          56.35
   0.05431              -26.54          4.083          77.28          65.72          3.003         -9.045          2.273         -4.738          151.4          110.5          56.35
   0.08147              -26.54          4.086          77.27          65.71          3.002         -9.046          2.262         -4.728          151.4          110.5          56.35
    0.1086              -26.54          4.088          77.25           65.7          3.001         -9.047           2.25         -4.717          151.4          110.5          56.35
    0.1358              -26.54          4.091          77.24           65.7          2.999         -9.048          2.238         -4.706          151.4          110.4          56.35
    0.1629              -26.54          4.094          77.23          65.69          2.998         -9.049          2.225         -4.694          151.4          110.4          56.35
    0.1901              -26.54          4.098          77.21          65.68          2.996         -9.051          2.211         -4.681          151.4          110.4          56.35
    0.2173              -26.54          4.101           77.2          65.68          2.994         -9.052          2.196         -4.667          151.3          110.4          56.35
    0.2444              -26.54          4.105          77.18          65.67          2.992         -9.053          2.179         -4.652          151.3          110.4          56.35
    0.2716              -26.54          4.109          77.16          65.66           2.99         -9.055          2.162         -4.636          151.3          110.3          56.35
    0.2987              -26.54          4.113          77.14          65.65          2.988         -9.057          2.143         -4.618          151.3          110.3          56.35
    0.3259              -26.54          4.118          77.12          65.64          2.986         -9.058          2.123           -4.6          151.2          110.3          56.35
     0.353              -26.54          4.123           77.1          65.62          2.983          -9.06          2.101         -4.579          151.2          110.2          56.35
    0.3802              -26.54          4.129          77.07          65.61          2.981         -9.062          2.078         -4.558          151.2          110.2          56.35
    0.4074              -26.54          4.134          77.04           65.6          2.978         -9.064          2.052         -4.534          151.1          110.2          56.35
    0.4345              -26.53          4.141          77.01          65.58          2.974         -9.067          2.024         -4.508          151.1          110.1          56.35
    0.4617              -26.53          4.148          76.98          65.57          2.971          -9.07          1.994          -4.48          151.1          110.1          56.35
    0.4888              -26.53          4.156          76.95          65.55          2.967         -9.072          1.961          -4.45          151.0          110.0          56.35
     0.516              -26.53          4.164          76.91          65.53          2.963         -9.076          1.924         -4.416          151.0          110.0          56.35
    0.5431              -26.53          4.173          76.87          65.51          2.958         -9.079          1.885         -4.379          150.9          109.9          56.35
    0.5703              -26.53          4.184          76.82          65.48          2.953         -9.083          1.841         -4.339          150.9          109.9          56.35
    0.5975              -26.53          4.195          76.77          65.46          2.948         -9.087          1.792         -4.294          150.8          109.8          56.35
    0.6246              -26.53          4.207          76.71          65.43          2.941         -9.092          1.739         -4.244          150.7          109.7          56.35
    0.6518              -26.52          4.221          76.65           65.4          2.935         -9.097          1.679         -4.189          150.7          109.6          56.35
    0.6789              -26.52          4.237          76.58          65.36          2.927         -9.103          1.613         -4.128          150.6          109.5          56.35
    0.7061              -26.52          4.254           76.5          65.32          2.918         -9.109          1.538         -4.059          150.5          109.4          56.35
    0.7333              -26.52          4.273          76.41          65.28          2.909         -9.117          1.454         -3.981          150.4          109.3          56.35
    0.7604              -26.51          4.295          76.31          65.22          2.898         -9.125           1.36         -3.894          150.2          109.2          56.35
    0.7876              -26.51           4.32           76.2          65.17          2.885         -9.134          1.252         -3.794          150.1          109.0          56.35
    0.8147              -26.51          4.349          76.07           65.1          2.871         -9.145           1.13         -3.681          149.9          108.9          56.35
    0.8419               -26.5          4.382          75.92          65.02          2.855         -9.157         0.9887         -3.551          149.8          108.6          56.35
     0.869               -26.5          4.419          75.75          64.94          2.836         -9.171         0.8261         -3.401          149.5          108.4          56.35
    0.8962              -26.49          4.463          75.55          64.83          2.814         -9.188         0.6372         -3.226          149.3          108.1          56.35
    0.9234              -26.49          4.515          75.32          64.71          2.788         -9.207         0.4161         -3.021          149.0          107.8          56.35
    0.9505              -26.48          4.575          75.04          64.57          2.758          -9.23         0.1555         -2.781          148.7          107.5          56.35
    0.9777              -26.47          4.647          74.71          64.41          2.723         -9.257        -0.1541         -2.494          148.3          107.0          56.35
     1.005              -26.46          4.733          74.32          64.21           2.68         -9.289        -0.5253         -2.151          147.8          106.5          56.36
     1.032              -26.45          4.838          73.85          63.96          2.628         -9.328        -0.9744         -1.736          147.2          105.8          56.36
     1.059              -26.43          4.965          73.27          63.67          2.564         -9.376         -1.523         -1.229          146.5          105.0          56.36
     1.086              -26.41          5.123          72.55           63.3          2.486         -9.435           -2.2        -0.6026          145.6          104.1          56.36
     1.113              -26.38          5.319          71.66          62.85          2.388         -9.508         -3.044         0.1781          144.5          102.9          56.36
     1.141              -26.35          5.566          70.54          62.27          2.265         -9.601         -4.108          1.161          143.1          101.3          56.36
     1.168              -26.31           5.88          69.11          61.54          2.109         -9.718          -5.46          2.412          141.3          99.38          56.36
     1.195              -26.26          6.283          67.28          60.61          1.909         -9.869         -7.191          4.012          139.1          96.89          56.36
     1.222              -26.19          6.799          64.94          59.41          1.652         -10.06         -9.412          6.065          136.2           93.7          56.37
     1.249              -26.11          7.458          61.94          57.88          1.324         -10.31         -12.25          8.688          132.5          89.62          56.37
     1.276               -26.0          8.287          58.17          55.95         0.9115         -10.62         -15.82          11.99          127.8          84.49          56.38
     1.304              -25.87          9.297          53.58          53.61         0.4089          -11.0         -20.16           16.0          122.1          78.24          56.38
     1.331              -25.72          10.47          48.26          50.89        -0.1737         -11.44          -25.2          20.66          115.6           71.0          56.39
     1.358              -25.56          11.74           42.5          47.94        -0.8046         -11.91         -30.66          25.71          108.4          63.15           56.4
     1.385              -25.39           13.0          36.74           45.0         -1.435         -12.39         -36.11          30.75          101.3          55.31           56.4
     1.412              -25.24          14.18          31.42          42.28         -2.018         -12.83         -41.15          35.41          94.75          48.07          56.41
     1.439              -25.11          15.19          26.82          39.93         -2.521          -13.2          -45.5          39.43          89.08          41.82          56.42
     1.467              -25.01          16.01          23.06          38.01         -2.933         -13.51         -49.06          42.73          84.42          36.69          56.42
     1.494              -24.92          16.67          20.06          36.48         -3.261         -13.76          -51.9          45.35          80.72          32.61          56.43
     1.521              -24.86          17.19          17.72          35.28         -3.518         -13.95         -54.12           47.4          77.82          29.42          56.43
     1.548               -24.8          17.59          15.89          34.34         -3.718         -14.11         -55.85           49.0          75.56          26.93          56.43
     1.575              -24.76          17.91          14.46          33.61         -3.875         -14.22         -57.21          50.25           73.8          24.99          56.43
     1.602              -24.73          18.15          13.34          33.04         -3.998         -14.32         -58.27          51.24          72.41          23.46          56.43
     1.629              -24.71          18.35          12.45          32.58         -4.095         -14.39         -59.11          52.02          71.31          22.24          56.43
     1.657              -24.69          18.51          11.73          32.22         -4.173         -14.45         -59.79          52.64          70.42          21.27          56.44
     1.684              -24.67          18.63          11.15          31.92         -4.237          -14.5         -60.34          53.15          69.71          20.48          56.44
     1.711              -24.66          18.74          10.68          31.68         -4.289         -14.53         -60.79          53.57          69.12          19.83          56.44
     1.738              -24.65          18.83          10.28          31.48         -4.332         -14.57         -61.16          53.91          68.63           19.3          56.44
